<svg xmlns="http://www.w3.org/2000/svg" xmlns:xlink="http://www.w3.org/1999/xlink" width="365.0243" height="325.9742" viewBox="0 0 365.0243 325.9742">
  <defs>
    <linearGradient id="a" x1="-6462.4759" y1="196.8906" x2="-6459.0755" y2="196.8906" gradientTransform="matrix(-1, 0, 0, 1, -6163.2157, 0)" gradientUnits="userSpaceOnUse">
      <stop offset="0" stop-color="#fff"/>
      <stop offset="0.6429" stop-color="#c6c0b9"/>
    </linearGradient>
    <linearGradient id="b" x1="-6443.0037" y1="199.0144" x2="-6436.8399" y2="199.0144" xlink:href="#a"/>
  </defs>
  <g style="isolation: isolate">
    <g>
      <path d="M343.9783,114.2571c7.6608-14.5334,15.715-28.9,19.3962-45.1828,5.4469-24.0935-2.8327-41.7511-21.2968-53.8948C325.5117,4.284,306.6765.5929,287.1753.0682a211.4081,211.4081,0,0,0-23.3692.7265C249.539,1.9907,235.5755,4.0585,222.0179,8.8a295.9448,295.9448,0,0,1-29.97,9.161c-2.0118.4886-9.581,2.317-17.7283,4.4645a4.9333,4.9333,0,0,0-.4063-.4513c-12.53,1-25.0457,2.5064-37.5942,2.8657-14.0955.4036-28.16.546-42.2242,2.0232-18.03,1.8938-35.7651,4.9611-52.7893,11.242-11.6028,4.2808-22.4516,9.9586-30.1072,20.2467C-.04,73.4548-3.9142,89.4951,4.6711,107.2835c2.88,5.9682,5.848,11.8942,8.6505,17.906a69.9583,69.9583,0,0,1,3.519,51.811c-4.2353,13.7667-9.3484,27.2778-11.1849,41.675-1.7522,13.7368-.5568,26.8469,8.4369,38.2234.92.9732,2.5891,3.4639,2.92,2.9732.5089-.7558,1.6744-5.1588,2-6,2.2568-5.8313,2.1628-11.3872,5-17,2.3961-1.511,2.0627.155,2.4336,1.0038,4.7371,10.8422,8.7965,21.9079,10.4111,33.7215.1763,1.29.1567,3.106,1.7387,3.1914,1.379.0744,1.9172-1.6179,2.5082-2.812,1.123-2.2693,1.6523-4.9009,3.8108-6.9532,3.403,4.8149,4.07,10.2469,6.2253,15.055a34.7806,34.7806,0,0,1,1.4626,5.7284c.5674,2.1376-.8621,5.03,2.34,6.1771,1.2736-1.82,2.1468-.1977,3.2357.3109,8.7784,4.1,16.4157,10.3624,25.6779,13.5392,1.5273-1.1452,1.6888-2.8747,1.5953-4.5018-.0813-1.4155-.1024-2.8245-.0824-4.2291l7.99,5.114c-.4383,2.8632-.8519,5.7318-1.2146,8.612a134.3034,134.3034,0,0,0,29.95,8.978c2.3555-1.4611,2.6519-3.5839,1.9383-6.0313a2.1379,2.1379,0,0,1-1.7657-1.5557c-.5595-1.9385-1.1281-3.8748-1.69-5.8123,2.3419.0258,4.7752.05,7.2452.0713.0116,2.0935.0011,4.1879-.049,6.2806-.4121,4.56,3.2555,5.5447,6.2475,6.989,2.46,1.1873,5.4565,1.0252,7.6713,2.9127,16.5845.1618,33.1155.2849,49.6868-1.67a408.4406,408.4406,0,0,0,68.32-14.4688c7.3307-2.1721,14.3262-5.361,21.7658-7.1533l2.5479-.4974,2-1s19.1213-7.6967,28.5607-13.3483l-.0266-.0123a136.0677,136.0677,0,0,0,30.65-18.8352c7.2815-5.9043,11.8027-12.9882,11.8572-22.9765.0576-10.5305-4.0389-19.4022-9.0165-28.0683-7.1064-12.3722-15.5959-23.9407-21.6907-36.9025-4.9662-10.5616-5.7155-21.1-.461-32.0123C331.16,134.7626,338.3384,124.9566,343.9783,114.2571Z" fill="#f0f0f0"/>
      <g>
        <path d="M64.6679,63.6761C77.2314,80.2507,80.3623,92.9616,75.5169,97.3L29.51,36.6048C33.8505,38.7077,53.3,48.6777,64.6679,63.6761Z"/>
        <path d="M28.6311,36.1883s.3125.1421.879.4165L75.5169,97.3c-.1117.1-.2224.2005-.3424.2913-5.332,4.0417-16.9625-2.3236-29.8151-19.28S28.6311,36.1883,28.6311,36.1883Z"/>
        <path d="M64.8819,83.84q-4.6271-6.1393-9.27-12.2662Q46.3375,59.31,37.2228,46.9262a.0885.0885,0,0,1,.1411-.1068q6.3826,8.1958,12.6992,16.4427a41.4843,41.4843,0,0,1,1.2811-8.8.1538.1538,0,0,1,.2929.04,42.6463,42.6463,0,0,1-1.23,9.21Q53.27,67.4455,56.126,71.184q4.6509,6.1211,9.305,12.24c3.0886,4.0514,6.49,8.0027,9.2374,12.2911a.2816.2816,0,0,1-.4485.34C70.8335,92.2519,67.9477,87.9083,64.8819,83.84Z" fill="#fff"/>
        <path d="M61.2077,78.5731a86.7412,86.7412,0,0,1,2.0665-14.7768.0966.0966,0,0,1,.1913.0264,86.7138,86.7138,0,0,1-2.003,14.7855A.1287.1287,0,0,1,61.2077,78.5731Z" fill="#fff"/>
        <path d="M44.2313,69.4122c1.98.1558,3.9522.3931,5.9265.6083a25.3708,25.3708,0,0,1,5.2929.8841.1457.1457,0,0,1-.0383.2774,25.3494,25.3494,0,0,1-5.3349-.579c-1.9588-.3262-3.9221-.6307-5.87-1.0156A.0885.0885,0,0,1,44.2313,69.4122Z" fill="#fff"/>
        <path d="M56.1961,84.79a75.9192,75.9192,0,0,1,10.2265,1.3185.161.161,0,0,1-.0438.3187,75.9122,75.9122,0,0,1-10.2026-1.4939A.0724.0724,0,0,1,56.1961,84.79Z" fill="#fff"/>
        <path d="M70.2477,91.389a67.9135,67.9135,0,0,1,1.7265-12.13.1047.1047,0,0,1,.2073.0285,67.9338,67.9338,0,0,1-1.6152,12.145A.1609.1609,0,0,1,70.2477,91.389Z" fill="#fff"/>
        <g>
          <path d="M48.5847,80.9612c16.28,5.9115,24.2162,13.3857,22.7892,18.6107L11.7572,77.9239C15.7434,77.4321,33.8529,75.6119,48.5847,80.9612Z"/>
          <path d="M10.9541,78.03s.2827-.0418.8031-.1061l59.6167,21.648c-.0328.12-.0648.2408-.1076.3586-1.9018,5.2372-12.9136,6.0439-29.5684-.0038S10.9541,78.03,10.9541,78.03Z"/>
          <path d="M57.8506,94.9665q-6.0114-2.2017-12.029-4.3871-12.0309-4.3845-24.0041-8.924a.0737.0737,0,0,1,.05-.1384q8.1695,2.846,16.3154,5.7576a34.5387,34.5387,0,0,1-3.0827-6.7336.1281.1281,0,0,1,.2231-.1042,35.5088,35.5088,0,0,1,3.3036,6.9968c2.46.8781,4.9216,1.7515,7.3779,2.64q6.02,2.1783,12.0414,4.3533c3.9917,1.4371,8.1572,2.6624,12.0174,4.42a.2346.2346,0,0,1-.16.4407C65.8161,98.1586,61.8342,96.4254,57.8506,94.9665Z" fill="#fff"/>
          <path d="M52.9,92.9441a72.2223,72.2223,0,0,1-5.2355-11.2686.08.08,0,0,1,.1456-.068,72.241,72.241,0,0,1,5.284,11.246A.1072.1072,0,0,1,52.9,92.9441Z" fill="#fff"/>
          <path d="M36.8852,94.2125c1.4552-.7861,2.9419-1.5119,4.42-2.254a21.1319,21.1319,0,0,1,4.1015-1.7747.1213.1213,0,0,1,.0986.2113,21.0966,21.0966,0,0,1-3.9927,2.0071c-1.5174.6575-3.0282,1.3322-4.5648,1.9439A.0738.0738,0,0,1,36.8852,94.2125Z" fill="#fff"/>
          <path d="M52.2054,99.5576a63.2142,63.2142,0,0,1,7.7484-3.7013.134.134,0,0,1,.1133.2426,63.2126,63.2126,0,0,1-7.8107,3.568A.06.06,0,0,1,52.2054,99.5576Z" fill="#fff"/>
          <path d="M65.0163,97.82A56.5648,56.5648,0,0,1,60.74,88.5563a.0871.0871,0,0,1,.1578-.0736,56.54,56.54,0,0,1,4.3614,9.224A.134.134,0,0,1,65.0163,97.82Z" fill="#fff"/>
        </g>
        <path d="M78.7022,61.8563c6.1581,14.2911,6.1557,24.086,1.8586,26.37L58.01,35.8928C60.7869,38.1978,73.13,48.9244,78.7022,61.8563Z"/>
        <path d="M57.4465,35.4327s.2014.1592.5639.46l22.55,52.3335c-.0989.0526-.1975.1059-.3009.15C75.6627,90.3577,68.3535,83.65,62.0537,69.03S57.4465,35.4327,57.4465,35.4327Z"/>
        <path d="M75.2459,76.5431q-2.2617-5.2888-4.5375-10.5714-4.54-10.5706-8.9439-21.1994a.0662.0662,0,0,1,.1216-.0523q3.1688,7.0973,6.28,14.22a31.0428,31.0428,0,0,1,2.507-6.1635.1151.1151,0,0,1,.2055.0818,31.8979,31.8979,0,0,1-2.543,6.47c.94,2.15,1.8849,4.2985,2.816,6.4528q2.2824,5.28,4.5674,10.5585c1.5179,3.4965,3.2815,6.976,4.509,10.5837a.2107.2107,0,0,1-.3868.1666C78.0628,83.72,76.7445,80.0475,75.2459,76.5431Z" fill="#fff"/>
        <path d="M73.52,72.0587a64.888,64.888,0,0,1,4.1481-10.3646.0722.0722,0,0,1,.1341.0535A64.8957,64.8957,0,0,1,73.699,72.13.0963.0963,0,0,1,73.52,72.0587Z" fill="#fff"/>
        <path d="M62.8283,62.3628c1.41.4678,2.8008.9935,4.1964,1.5034a18.9871,18.9871,0,0,1,3.6868,1.59.109.109,0,0,1-.0776.1946,18.9615,18.9615,0,0,1-3.7717-1.3761c-1.3646-.5878-2.7364-1.1607-4.0828-1.7892A.0663.0663,0,0,1,62.8283,62.3628Z" fill="#fff"/>
        <path d="M68.7659,75.6771a56.8189,56.8189,0,0,1,7.193,2.79.12.12,0,0,1-.0888.2236,56.7741,56.7741,0,0,1-7.1442-2.9126A.0542.0542,0,0,1,68.7659,75.6771Z" fill="#fff"/>
        <path d="M77.7918,82.9882a50.8225,50.8225,0,0,1,3.427-8.5025.0783.0783,0,0,1,.1453.0579,50.8251,50.8251,0,0,1-3.3487,8.5335A.12.12,0,0,1,77.7918,82.9882Z" fill="#fff"/>
      </g>
      <g>
        <path d="M70.1737,54.7165h209.878A10.7852,10.7852,0,0,1,290.837,65.5017V207.2064a10.7852,10.7852,0,0,1-10.7852,10.7852H70.1742A10.7856,10.7856,0,0,1,59.3886,207.206V65.5016A10.7851,10.7851,0,0,1,70.1737,54.7165Z" transform="translate(350.2256 272.7081) rotate(180)"/>
        <path d="M312.5975,40.2656a25.4958,25.4958,0,0,0-2.7275-6.5764l2.7765-4.1759-3.852-3.8531-3.8531-3.8531-4.176,2.7776a25.5333,25.5333,0,0,0-6.5774-2.7286L293.2,16.9437H282.3027l-.9892,4.9124a25.5333,25.5333,0,0,0-6.5774,2.7286L270.56,21.8071,266.7071,25.66l-3.852,3.8531,2.7765,4.1759a25.5344,25.5344,0,0,0-2.7275,6.5764l-4.9126.9891V52.1521l4.9126.989a25.4994,25.4994,0,0,0,2.7275,6.5764l-2.7765,4.177,3.852,3.852L270.56,71.6l4.177-2.7765a25.5352,25.5352,0,0,0,6.5763,2.7275l.9892,4.9126H293.2l.9881-4.9126a25.5587,25.5587,0,0,0,6.5774-2.7275l4.176,2.7765,3.8531-3.8531,3.852-3.852-2.7765-4.177a25.4609,25.4609,0,0,0,2.7275-6.5764l4.9135-.989V41.2547ZM287.7513,65.795a19.0916,19.0916,0,1,1,19.0916-19.0916A19.0918,19.0918,0,0,1,287.7513,65.795Z" fill="#cecece"/>
        <path d="M320.0318,86.6015a11.6838,11.6838,0,0,0-1.2513-3.0142l1.2737-1.9154-1.7661-1.766L316.5209,78.14l-1.9143,1.2726a11.6885,11.6885,0,0,0-3.0153-1.25l-.453-2.2522h-4.9957l-.4529,2.2522a11.6856,11.6856,0,0,0-3.0153,1.25L300.759,78.14l-1.7661,1.7662-1.7661,1.766,1.2737,1.9154a11.68,11.68,0,0,0-1.2513,3.0142l-2.2522.4542v4.9956l2.2522.4529a11.6847,11.6847,0,0,0,1.2513,3.0153l-1.2737,1.9143L298.9929,99.2l1.7661,1.7662,1.9154-1.2726a11.6856,11.6856,0,0,0,3.0153,1.25l.4529,2.2521h4.9957l.453-2.2521a11.6885,11.6885,0,0,0,3.0153-1.25l1.9143,1.2726L318.2881,99.2l1.7661-1.7661L318.7805,95.52a11.6882,11.6882,0,0,0,1.2513-3.0153l2.2522-.4529V87.0557ZM308.64,98.3057a8.7528,8.7528,0,1,1,8.7528-8.7528A8.7524,8.7524,0,0,1,308.64,98.3057Z" fill="#cecece"/>
        <path d="M280.0518,54.7165H70.1742A10.7855,10.7855,0,0,0,59.3887,65.5021V207.2065a10.7851,10.7851,0,0,0,10.785,10.7851h91.5381v42.1951h26.8031V217.9916h91.5369a10.7852,10.7852,0,0,0,10.7852-10.7852V65.5017A10.7852,10.7852,0,0,0,280.0518,54.7165Z"/>
        <path d="M280.0518,54.7165H70.1742A10.7855,10.7855,0,0,0,59.3887,65.5021V207.2065a10.7851,10.7851,0,0,0,10.785,10.7851h91.5381v42.1951h26.8031V217.9916h91.5369a10.7852,10.7852,0,0,0,10.7852-10.7852V65.5017A10.7852,10.7852,0,0,0,280.0518,54.7165Z" fill="#fff" opacity="0.3"/>
        <rect x="68.4532" y="37.3388" width="213.3197" height="155.066" transform="translate(350.2261 229.7435) rotate(180)" fill="#fff"/>
        <rect x="68.4532" y="37.3388" width="213.3197" height="18.7291" transform="translate(350.2261 93.4067) rotate(180)"/>
        <g opacity="0.3">
          <rect x="68.4532" y="37.3388" width="213.3197" height="18.7291" transform="translate(350.2261 93.4067) rotate(180)" fill="#fff"/>
        </g>
        <path d="M167.6476,204.1131a7.4658,7.4658,0,1,0,7.4652-7.4652A7.4657,7.4657,0,0,0,167.6476,204.1131Z" fill="#fff"/>
        <path d="M134.034,79.3985H204.51a2.248,2.248,0,0,1,2.248,2.248V82.7a2.248,2.248,0,0,1-2.248,2.248H134.034a2.2472,2.2472,0,0,1-2.2472-2.2472V81.6456A2.2472,2.2472,0,0,1,134.034,79.3985Z" transform="translate(338.5448 164.3469) rotate(-180)" fill="#ececec"/>
        <path d="M134.034,89.4079H204.51a2.248,2.248,0,0,1,2.248,2.248V92.71a2.248,2.248,0,0,1-2.248,2.248H134.034a2.2472,2.2472,0,0,1-2.2472-2.2472V91.6551a2.2472,2.2472,0,0,1,2.2472-2.2472Z" transform="translate(338.5448 184.3658) rotate(180)" fill="#ececec"/>
        <path d="M170.3847,181.4946H90.4215a12.1066,12.1066,0,0,1-12.0921-12.0932v-48.64A12.1064,12.1064,0,0,1,90.4215,108.669h79.9632a12.1067,12.1067,0,0,1,12.0921,12.0922v48.64A12.1069,12.1069,0,0,1,170.3847,181.4946Zm-79.9632-71.31a10.5888,10.5888,0,0,0-10.5764,10.5765v48.64A10.5891,10.5891,0,0,0,90.4215,179.979h79.9632a10.59,10.59,0,0,0,10.5764-10.5776v-48.64a10.5892,10.5892,0,0,0-10.5764-10.5765Z" fill="#ececec"/>
        <path d="M92.8841,115.304h75.0378a1.4779,1.4779,0,0,1,1.4779,1.4779v8.741a1.4779,1.4779,0,0,1-1.4779,1.4779H92.8841a1.4782,1.4782,0,0,1-1.4782-1.4782v-8.74a1.4782,1.4782,0,0,1,1.4782-1.4782Z" transform="translate(260.8057 242.3047) rotate(180)" fill="#ececec"/>
        <rect x="114.8206" y="257.1139" width="120.5855" height="6.1457"/>
        <rect x="114.8206" y="257.1139" width="120.5855" height="6.1457" fill="#fff" opacity="0.3"/>
        <path d="M77.6877,43.1648h29.7754a.3249.3249,0,0,1,.3249.3249v6.4275a.3249.3249,0,0,1-.3249.3249H77.6876a.3249.3249,0,0,1-.3249-.3249V43.49A.325.325,0,0,1,77.6877,43.1648Z" fill="#fff"/>
        <g>
          <path d="M193.5994,109.4268h10.0375a3.1211,3.1211,0,0,1,3.1211,3.1211v10.0367a3.1211,3.1211,0,0,1-3.1211,3.1211H193.6a3.1211,3.1211,0,0,1-3.1211-3.1211V112.547A3.12,3.12,0,0,1,193.5994,109.4268Z" fill="#ececec"/>
          <path d="M198.1033,121.1523l-4.1153-3.5876a.8106.8106,0,0,1,1.0648-1.2226l2.91,2.5379,4.15-4.6292a.8107.8107,0,1,1,1.2075,1.082Z" fill="#fff"/>
        </g>
        <g>
          <path d="M229.1666,69.26h39.2589a3.1211,3.1211,0,0,1,3.1211,3.1211V178.4669a3.1211,3.1211,0,0,1-3.1211,3.1211h-39.258a3.1211,3.1211,0,0,1-3.1211-3.1211V72.38A3.12,3.12,0,0,1,229.1666,69.26Z" fill="#ececec"/>
          <path d="M247.3563,150.1687l-11.5028-24.7558a12.0379,12.0379,0,0,1-.22-7.8919c.8221-2.3309,2.2523-2.5742,3.1964-.5437l8.133,17.5115,11.601-31.942c.8371-2.3016,2.2669-2.4929,3.2-.4338a12.0724,12.0724,0,0,1,.1757,7.8994Z" fill="#fff"/>
        </g>
        <g>
          <rect x="190.4792" y="130.2878" width="16.2788" height="16.2799" rx="3.1211" fill="#ececec"/>
          <path d="M198.1033,142.0133l-4.1153-3.5877a.8106.8106,0,0,1,1.0648-1.2226l2.91,2.5378,4.15-4.629a.8106.8106,0,1,1,1.2075,1.0818Z" fill="#fff"/>
        </g>
        <path d="M193.6,151.15h10.0366a3.1211,3.1211,0,0,1,3.1211,3.1211v10.0376a3.12,3.12,0,0,1-3.12,3.12H193.5993a3.12,3.12,0,0,1-3.12-3.12V154.2709A3.1211,3.1211,0,0,1,193.6,151.15Z" fill="#ececec"/>
        <path d="M291.0075,203.3042l.0106-.0011C290.9723,203.3234,290.966,203.3254,291.0075,203.3042Z" fill="#323657"/>
        <path d="M82.8733,69.2217H119.347a4.812,4.812,0,0,1,4.812,4.812V89.3021a4.8115,4.8115,0,0,1-4.8115,4.8115H82.8728a4.812,4.812,0,0,1-4.812-4.812V74.0342A4.8125,4.8125,0,0,1,82.8733,69.2217Z" fill="#ececec"/>
        <g>
          <path d="M53.9746,314.2534c0,1.2515-9.6176,2.2661-21.4813,2.2661s-21.4811-1.0146-21.4811-2.2661,9.6174-2.2664,21.4811-2.2664S53.9746,313.0016,53.9746,314.2534Z" fill="#ececec"/>
          <g>
            <path d="M12.8359,279.1534c-.03,21.9422,5.4206,34.6321,12.2587,35.2016l.1112-80.3519C22.89,238.534,12.8635,259.2978,12.8359,279.1534Z"/>
            <path d="M25.6807,233.0933s-.1726.3183-.4749.91l-.1112,80.3519c.1573.0131.3147.0273.4735.0275,7.0588.01,12.7986-12.7464,12.83-35.1938S25.6807,233.0933,25.6807,233.0933Z"/>
            <path d="M25.483,296.2606q-.0111-8.11,0-16.2211.0037-16.2222-.2023-32.4429a.0934.0934,0,0,0-.1867,0q-.1585,10.9585-.229,21.9176a43.7506,43.7506,0,0,0-6.6762-6.5918c-.1263-.095-.3157.0938-.2209.22a44.9827,44.9827,0,0,0,6.8937,6.9689c-.0227,3.3092-.0516,6.618-.06,9.9272q-.02,8.1107-.0452,16.2212c-.0222,5.3747-.3719,10.8643.0441,16.2214a.2971.2971,0,0,0,.5939.0008C25.8249,307.1266,25.49,301.6351,25.483,296.2606Z" fill="#fff"/>
            <path d="M25.2249,289.49A91.505,91.505,0,0,0,14.0856,278.368a.1019.1019,0,0,0-.1442.1437,91.5,91.5,0,0,0,11.0915,11.17A.1357.1357,0,0,0,25.2249,289.49Z" fill="#fff"/>
            <path d="M33.6856,270.98c-1.5672,1.3907-3.0763,2.8452-4.6011,4.2821a26.7545,26.7545,0,0,0-3.8924,4.1113.1537.1537,0,0,0,.2086.2091,26.7212,26.7212,0,0,0,4.1219-3.881c1.4412-1.5206,2.9-3.0259,4.295-4.5893A.0935.0935,0,0,0,33.6856,270.98Z" fill="#fff"/>
            <path d="M33.3977,291.5345a80.0693,80.0693,0,0,0-7.7685,7.6155.17.17,0,0,0,.2395.24,80.08,80.08,0,0,0,7.637-7.7476A.0764.0764,0,0,0,33.3977,291.5345Z" fill="#fff"/>
            <path d="M25.7691,306.0278A71.6612,71.6612,0,0,0,16.6,296.9169a.11.11,0,0,0-.1562.1559,71.6347,71.6347,0,0,0,9.0854,9.1945A.17.17,0,0,0,25.7691,306.0278Z" fill="#fff"/>
          </g>
          <g>
            <path d="M34.912,290.9022c-.0206,14.9118,3.6838,23.5358,8.331,23.9228l.0755-54.6066C41.7449,263.2976,34.9308,277.4085,34.912,290.9022Z"/>
            <path d="M43.6413,259.6s-.1173.2163-.3228.6183L43.243,314.825c.1069.0089.2139.0186.3218.0187,4.7971.0066,8.6978-8.6624,8.7189-23.9175S43.6413,259.6,43.6413,259.6Z"/>
            <path d="M43.5069,302.5282q-.0075-5.5119,0-11.0238.0025-11.0245-.1375-22.048a.0634.0634,0,0,0-.1268,0q-.1079,7.4473-.1556,14.8951a29.7349,29.7349,0,0,0-4.5371-4.48c-.0859-.0646-.2146.0637-.15.15a30.5721,30.5721,0,0,0,4.6849,4.736c-.0154,2.2489-.035,4.4975-.0407,6.7464q-.0138,5.5119-.0307,11.0238c-.0151,3.6526-.2527,7.3833.03,11.024a.202.202,0,0,0,.4037.0005C43.7393,309.9126,43.5119,306.1806,43.5069,302.5282Z" fill="#fff"/>
            <path d="M43.3315,297.9271a62.1811,62.1811,0,0,0-7.57-7.5586.0692.0692,0,0,0-.098.0976,62.1972,62.1972,0,0,0,7.5377,7.5913A.0923.0923,0,0,0,43.3315,297.9271Z" fill="#fff"/>
            <path d="M49.0814,285.3479c-1.0651.9451-2.0907,1.9336-3.1269,2.91a18.1893,18.1893,0,0,0-2.6453,2.794.1045.1045,0,0,0,.1418.1421,18.162,18.162,0,0,0,2.8012-2.6375c.9794-1.0334,1.9708-2.0564,2.9189-3.1188A.0635.0635,0,0,0,49.0814,285.3479Z" fill="#fff"/>
            <path d="M48.8857,299.3163a54.4209,54.4209,0,0,0-5.2794,5.1755.1153.1153,0,0,0,.1628.1632,54.4075,54.4075,0,0,0,5.19-5.2652A.052.052,0,0,0,48.8857,299.3163Z" fill="#fff"/>
            <path d="M43.7014,309.1659a48.701,48.701,0,0,0-6.2315-6.1917.075.075,0,0,0-.1061.1059,48.6874,48.6874,0,0,0,6.1743,6.2486A.1154.1154,0,0,0,43.7014,309.1659Z" fill="#fff"/>
          </g>
        </g>
        <g>
          <path d="M71.7831,199.4607a.0249.0249,0,0,0-.0144,0C71.8278,199.4857,71.8364,199.4882,71.7831,199.4607Z" fill="#323657"/>
          <path d="M85.95,203.5462a.0211.0211,0,0,0-.0132,0C85.995,203.571,86.0028,203.5737,85.95,203.5462Z" fill="#323657"/>
          <path d="M84.9679,233.1771a5.6948,5.6948,0,0,1,.7379,1.9518,9.3668,9.3668,0,0,0,.9016,2.3036,21.9687,21.9687,0,0,1,1.0948,3.8411,17.7379,17.7379,0,0,0-.5165,2.5714c.087.5559.4056,1.659-.0939,1.7315s-1.066-.83-1.066-.83a.7322.7322,0,0,1-.3756.7072,1.2378,1.2378,0,0,1-1.2564.0465s-.3036.562-.6842.6384a1.55,1.55,0,0,1-1.2494-.169,1.5153,1.5153,0,0,1-.95.3042,1.2443,1.2443,0,0,1-1.0536-.6548s-.9389.19-1.2112-.2478a4.2035,4.2035,0,0,1-.3381-1.3033,15.1683,15.1683,0,0,1,1.1906-6.5641,5.8152,5.8152,0,0,0-.31-5.0993Z" fill="#fff" stroke="#000" stroke-miterlimit="10" stroke-width="0.25"/>
          <path d="M86.1579,244.41s.0838-3.2163-.7631-3.9025c-.847-.6847-.9428.4771-.9428.4771s.1146-1.1481-.8106-1.3021-.9641,1.2082-.9641,1.2082a.895.895,0,0,0-1.1235-.7037c-.9722.1815-.7406,1.3109-.7406,1.3109s-.9283-1.1068-1.53-.0439a4.7391,4.7391,0,0,0-.0369,3.9175s.2866.4857,1.2112.2478a1.2782,1.2782,0,0,0,2.0032.3506s1.4172.78,1.9336-.4694A1.1734,1.1734,0,0,0,86.1579,244.41Z" fill="#fff" stroke="#000" stroke-miterlimit="10" stroke-width="0.25"/>
          <path d="M95.8818,186.8318s-5.5074,18.3563-7.3683,25.127c-.5835,2.1233-1.9963,22.404-2.2455,23.22s-7.235,1.9355-7.235,1.9355.8462-25.37.9251-26.7545,7.7083-29.7142,9.9269-30.7258c1.662-.7561,2.54-.13,4.6342,1.4247C97.4593,183.2411,95.8818,186.8318,95.8818,186.8318Z"/>
          <rect x="148.6699" y="156.9004" width="15.0666" height="1.1192" transform="matrix(0.8367, -0.5477, 0.5477, 0.8367, -60.7275, 111.2633)" fill="#e8e8e8"/>
          <path d="M164.1573,157.61a3.2844,3.2844,0,0,1-.3249.999s-.4125.4934-.6848.86a3.2047,3.2047,0,0,0-.1978.2929,6.0245,6.0245,0,0,1-1.041,1.6188c-.6.6084-2.939,2.5453-2.939,2.5453l-2.0038-1.7-2.08-.9327s1.1648-5.0629,1.6588-5.6952a2.1557,2.1557,0,0,1,.15-.1728,7.6543,7.6543,0,0,1,1.3039-.8964c.102-.0838,1.1718-.8551,1.553-.7561a1.2893,1.2893,0,0,1,.9615.8024,3.0756,3.0756,0,0,1,1.4247.9165,1.9149,1.9149,0,0,1,1.2383,1.1493S164.1154,157.0137,164.1573,157.61Z" fill="#fff" stroke="#000" stroke-miterlimit="10" stroke-width="0.25"/>
          <path d="M91.413,312.1662s-.5021,4.8684-.5646,5.3917-5.5851-.3079-5.5851-.3079l-.4469-5.5332S90.7225,311.6742,91.413,312.1662Z" fill="#fff" stroke="#000" stroke-miterlimit="10" stroke-width="0.25"/>
          <path d="M90.9072,317.1148a14.88,14.88,0,0,0,3.4416,3.0147c1.6921.9164,4.3513,1.2782,5.3522,2.226.7224.6836,2.631,3.6282-4.3975,3.5681s-10.417.4169-11.1694-.7124,1.0892-8.3318,1.0892-8.3318S86.8877,317.4778,90.9072,317.1148Z"/>
          <path d="M130.98,312.1662s-.5021,5.2145-.5646,5.7378-5.5851-.3079-5.5851-.3079l-.4469-5.8793S130.29,311.6742,130.98,312.1662Z" fill="#fff" stroke="#000" stroke-miterlimit="10" stroke-width="0.25"/>
          <path d="M130.4744,317.1148a14.88,14.88,0,0,0,3.4416,3.0147c1.692.9164,7.9194,1.6677,8.92,2.6153.7225.6836,1.9237,3.4367-7.9655,3.1788-7.0254-.1828-10.417.4169-11.1694-.7124s1.0892-8.3318,1.0892-8.3318S126.3585,317.5191,130.4744,317.1148Z"/>
          <path d="M95.9858,222.623s-5.1888,8.2442-4.8019,15.6959-1.8811,15.587-2.66,23.3718c-.8689,8.6786-4.4252,29.2234-4.554,33.8657s.552,19.4656.552,19.4656l7.1181.1627s5.9787-35.9177,7.5274-39.5822,9.227-29.793,9.485-32.724S95.9858,222.623,95.9858,222.623Z" fill="#fff" stroke="#000" stroke-miterlimit="10" stroke-width="0.25"/>
          <path d="M123.3007,223.74s3.91,20.4247,4.4262,24.9856.86,22.0722,1.1181,24.9229,1.6726,37.2407,2.3587,41.5612h-7.2671s-8.0809-25.069-8.0809-36.9189-5.3971-25.7617-8.8807-33.58-11.4587-8.0039-13.6-22.5093C93.3749,222.201,120.401,219.1388,123.3007,223.74Z" fill="#fff" stroke="#000" stroke-miterlimit="10" stroke-width="0.25"/>
          <path d="M114.82,156.0133c-3.2114-5.302-10.176-2.7-10.176-2.7-1.8286.9251-4.2786,2.703-4.3562,5.908a23.5074,23.5074,0,0,0,2.0958,8.7014l.0043.0161a62.6529,62.6529,0,0,1,2.2335,9.2946s9.5018-.0239,9.023-.95a6.0239,6.0239,0,0,1-.189-2.8069l-.0025-.0019c.26-.0714.5138-.15.758-.241C117.7218,171.9284,118.0317,161.3142,114.82,156.0133Z" fill="#fff" stroke="#000" stroke-miterlimit="10" stroke-width="0.25"/>
          <path d="M102.3883,167.9384s.6555,1.0816,3.3322.661,5.9431-3.9813,7.0611-4.3719,1.128-1.048,1.128-1.048l.7,1.023,1.1874.0751s-1.0829-3.1863.55-4.4858-1.695-10.3125-10.28-7.3116c0,0-6.5942,1.8179-6.3545,5.5676S100.9123,166.07,102.3883,167.9384Z"/>
          <path d="M114.2089,176.1712s-.03-1.77-.8327-1.9393-8.8545-.9439-9.8392-.557v2.062S105.4344,176.9036,114.2089,176.1712Z"/>
          <path d="M113.7325,161.8162c-.15-.6285-1.75-2.4263-2.3625-.502s.9258,4.5133,1.7834,4.2917S114.113,163.4112,113.7325,161.8162Z" fill="#fff" stroke="#000" stroke-miterlimit="10" stroke-width="0.25"/>
          <path d="M127.5278,178.8505c-5.5211-.7274-13.3189-2.6793-13.3189-2.6793l-10.6719-.4343s-9.7947,2.1558-13.652,3.8973c-.3655.1652-.3675,8.7387-1.3715,10.986l3.1981,6.7468s1.8472,13.3648,2.23,19.3092c.1765,2.728-3.5726,17.5566-3.5726,17.5566a75.781,75.781,0,0,0,12.7015,2.4761c7.2839.8025,25.4818-.29,25.5964-1.15s-4.9085-24.4184-5.0693-26.0335c-.2473-2.4776.8538-15.6433.8538-15.6433,1.6813-1.3046,16.4471-8.1578,20.4753-11.73,1.0779-.9565,5.6275-5.3872,6.9208-6.9159,4.58-5.416,8.335-10.062,8.7919-11.0635.519-.57-4.9765-3.557-5.4748-3.7234-.4363-.1452-6.6272,7.8761-9.01,10.4577a66.9332,66.9332,0,0,1-5.48,4.3643S130.9815,179.05,127.5278,178.8505Z"/>
          <path d="M102.6606,153.9388s-8.88.6948-.2723,14Z"/>
          <polygon points="162.813 153.802 163.541 152.691 162.2 152.866 162.813 153.802" fill="#dfe1e8"/>
        </g>
      </g>
      <text transform="translate(103.7651 155.5239)" font-size="18" font-family="MyriadPro-Bold, Myriad Pro" font-weight="700">django</text>
      <g>
        <g>
          <path d="M274.6936,208.4335l-5.4516-23.9469a1.1458,1.1458,0,0,0-1.28-.88l-16.9693,2.4368a1.146,1.146,0,0,0-.9545,1.3887l5.4517,23.9468a1.1461,1.1461,0,0,0,1.28.88l16.9693-2.4368A1.1458,1.1458,0,0,0,274.6936,208.4335Z"/>
          <g opacity="0.3">
            <path d="M274.6936,208.4335l-5.4516-23.9469a1.1458,1.1458,0,0,0-1.28-.88l-16.9693,2.4368a1.146,1.146,0,0,0-.9545,1.3887l5.4517,23.9468a1.1461,1.1461,0,0,0,1.28.88l16.9693-2.4368A1.1458,1.1458,0,0,0,274.6936,208.4335Z" fill="#fff"/>
          </g>
          <g>
            <line x1="253.1163" y1="189.3678" x2="267.4347" y2="187.3117" fill="none" stroke="#fff" stroke-miterlimit="10"/>
            <line x1="253.5984" y1="191.5349" x2="267.9168" y2="189.4788" fill="none" stroke="#fff" stroke-miterlimit="10"/>
            <line x1="259.5595" y1="193.3313" x2="268.5073" y2="192.0464" fill="none" stroke="#fff" stroke-miterlimit="10"/>
            <line x1="260.1954" y1="195.1941" x2="269.1433" y2="193.9092" fill="none" stroke="#fff" stroke-miterlimit="10"/>
            <line x1="260.8315" y1="197.0568" x2="269.7793" y2="195.7718" fill="none" stroke="#fff" stroke-miterlimit="10"/>
            <line x1="257.5503" y1="207.3508" x2="266.4981" y2="206.0659" fill="none" stroke="#fff" stroke-miterlimit="10"/>
          </g>
        </g>
        <g>
          <path d="M275.7723,208.72a7.42,7.42,0,0,1-2.3588-2.1042q-1.0112-1.2039-2.0225-2.4079a2.0035,2.0035,0,0,1-.5746-1.0752c1.13-.092,1.8582,1.3763,2.9888,1.4632a23.6746,23.6746,0,0,0-2.2456-5.3348,1.6389,1.6389,0,0,1-.3238-1.3282,8.6173,8.6173,0,0,1,3.14,2.2933,16.7537,16.7537,0,0,1,1.7017,2.1649,23.3028,23.3028,0,0,1,3.0452,7.4807" fill="#fff"/>
          <path d="M275.7812,208.7048a7.4376,7.4376,0,0,1-2.2151-1.9769q-.9992-1.1907-1.99-2.3889c-.1426-.1718-1.0975-1.28-.3709-1.11a2.8764,2.8764,0,0,1,1.0561.6174,3.2034,3.2034,0,0,0,1.5436.8239c.0488.0063.0836-.0525.0717-.0941a24.1539,24.1539,0,0,0-1.9361-4.7911c-.1555-.2891-.6887-.9478-.6453-1.2939.0845-.6734.8523-.0348,1.1143.1347a10.4,10.4,0,0,1,1.9812,1.7354,21.4457,21.4457,0,0,1,4.6521,9.5327c.0261.1038.1843.06.16-.0441a23.4446,23.4446,0,0,0-2.83-7.15,11.6383,11.6383,0,0,0-5.1162-4.8435.08.08,0,0,0-.0974.0553c-.2044.834.4851,1.6325.8459,2.3327a23.6773,23.6773,0,0,1,1.3066,3.04q.1241.3551.2369.7139c.0813.2591.2435.5078-.1309.4358a3.09,3.09,0,0,1-1.0583-.6855,2.4157,2.4157,0,0,0-1.5433-.6795.0651.0651,0,0,0-.0617.081,2.6673,2.6673,0,0,0,.74,1.2711q.7609.9,1.5239,1.7989a9.0089,9.0089,0,0,0,2.745,2.5155c.02.01.0379-.02.0177-.03Z"/>
        </g>
        <path d="M280.6362,228.0086l12.1165-10.2225s5.6389,7.6479,3.5147,15.026c-1.0446,3.6282-2.3559,5.4271-2.9252,7.1487-.5318,1.6082-4.1789,24.3741-3.9067,26.0386s2.23,6.3216,2.9777,11.2192c.8989,5.89.7462,25.082,1.4432,30.1706s-4.0019,5.9494-4.2605,4.2277c-2.2087-14.7141-8.0422-37.6434-8.8585-45S280.2524,245.7905,280.6362,228.0086Z" fill="#fff" stroke="#000" stroke-miterlimit="10" stroke-width="0.25"/>
        <path d="M288.78,306.8915s1.1282,5.3389.8245,6.0194a9.3664,9.3664,0,0,1-2.5129,3.3731c-1.1729.75-3.7707,1.6419-3.9786,1.9671a.807.807,0,0,0,.1494,1.09,5.3823,5.3823,0,0,0,3.7038.9389c3.5221-.5814,3.8865-2.139,5.9385-2.3883.3542-.043,1.0106.4808,1.99-.0206a2.3293,2.3293,0,0,0,1.3718-2.26,10.086,10.086,0,0,0-1.559-3.7705c-.5881-1.0877-1.002-6.0649-1.002-6.0649" fill="#fff" stroke="#000" stroke-miterlimit="10" stroke-width="0.25"/>
        <path d="M282.9876,319.5986c-.2569-.4395-.3221-1.104-.0833-1.2664a20.6149,20.6149,0,0,1,2.1926-1.32c.6833-.3145,1.7667-.5917,1.385-.3854s.3209.9768.96.9375c2.2077-.135,3.8357-1.6024,5.0935-1.9168,1.8151-.4537,2.5754-2.5965,2.6552-2.944a8.47,8.47,0,0,1,1.3034,2.4857,4.3471,4.3471,0,0,1,.2692,1.8979,4.4131,4.4131,0,0,0-.2016,1.8093,3.4665,3.4665,0,0,1-1.3048.4706,5.1415,5.1415,0,0,1-1.4048.02l-.1562-1.14a5.1626,5.1626,0,0,0-1.1227.11,6.0932,6.0932,0,0,0-1.7154.8009c-.252.3008-.4535.8494-.7872,1.0176a7.0388,7.0388,0,0,1-2.8958.7223C284.8078,321.0368,283.4262,320.3494,282.9876,319.5986Z"/>
        <path d="M264.0915,319.3767c.26-.2877,3.067-.7443,4.3836-1.2942a7.5727,7.5727,0,0,0,3.0694-2.924c.2956-.7148.2279-4.3376.19-5.8586-.2626-10.4774-2.1985-36.0808-2.4788-42.2123-.4872-10.6574.8963-21.6577,4.9966-38.7664l15.2686-11.7177s4.2759,7.9493,2.8444,15.55c-.8306,4.41-4.4883,5.088-5.1067,6.8017s-9.8561,29.3459-9.8561,29.3459a51.9932,51.9932,0,0,1,1.9015,12.5183c.0892,5.5866-2.4445,22.4391-2.9144,28.8594-.0553,1.2547-.2712,4.2579.0982,5.2138.4531,1.1716,1.6077,2.5477,1.55,4.0255a2.2729,2.2729,0,0,1-1.7348,2.01c-1.082.3356-1.6853-.29-2.0569-.3049-2.1526-.0893-2.7488,1.3911-6.4651,1.39a5.881,5.881,0,0,1-3.6891-1.5339A.7858.7858,0,0,1,264.0915,319.3767Z" fill="#fff" stroke="#000" stroke-miterlimit="10" stroke-width="0.25"/>
        <path d="M263.772,320.6884c-.203-.4767-.1763-1.1442.0931-1.2655a21.2552,21.2552,0,0,1,2.4491-.9462c.7493-.1993,1.9062-.2962,1.4834-.1546s.193,1.0183.8583,1.084c2.2972.2275,4.1842-.9572,5.5264-1.0624,1.9372-.1516,2.648-2.1457,2.7793-2.4763a8.879,8.879,0,0,1,1.37,2.6708,4.1921,4.1921,0,0,1,.01,1.92,4.2,4.2,0,0,0-.4637,1.7557,3.66,3.66,0,0,1-1.4129.2519,5.6189,5.6189,0,0,1-1.4526-.21v-1.1525a5.6107,5.6107,0,0,0-1.1739-.0743,3.89,3.89,0,0,0-1.8932.6695c-.3155.2378-.6478.6377-1.02.7312a7.7882,7.7882,0,0,1-3.0161.2282C265.4468,322.4079,264.1184,321.5023,263.772,320.6884Z"/>
        <path d="M292.4334,216.5c1.0361,1.138,4.7291,7.2915,4.7684,12.3s-1.7425,8.22-1.9025,9.2658c-1.1713,7.6512-2.3039,16.8786-2.3039,17.38s-4.3432,3.3978-10.184,3.03c-10.7918-.6794-14.988-3.5059-14.988-3.5059s.511-18.5336,2.1748-27.6722c.8339-4.58,4.4642-11.9506,4.4642-11.9506" fill="#fff" stroke="#000" stroke-miterlimit="10" stroke-width="0.25"/>
        <path d="M302.28,196.4878s-1.7381,8.6361-2.1941,10.1732-2.7112,11.295-4.8484,11.1251-13.843-9.9425-13.843-9.9425l1.6578-3.3156,10.3039,4.912s.931-11.1549,1.7473-13.8116" fill="#fff" stroke="#000" stroke-miterlimit="10" stroke-width="0.25"/>
        <path d="M295.2993,184.5176s3.4166.364,5.1492,1.69c4.4178,3.38.9991,15.65.9991,15.65s.2178.655-2.7481.4887a21.35,21.35,0,0,1-5.3438-1.01l.857-10.0535"/>
        <path d="M299.21,191.464s.3748,7.2131-.9311,10.8531a11.7732,11.7732,0,0,1-2.4194-.3178Z" fill="url(#a)" style="mix-blend-mode: multiply"/>
        <g>
          <path d="M278.9692,161.88c-2.0586,2.67-1.6512,6.4238-1.1434,9.7565q.385,2.5275.77,5.0551a2.5374,2.5374,0,0,0,3.252,2.6687q-.0125,2.0917-.025,4.1836,3.5786.0867,7.1587.0286a6.8978,6.8978,0,0,1,.619-2.84c1.1672-.0227,1.9472-1.1933,2.4042-2.2676a32.7916,32.7916,0,0,0,1.2816-3.8279,21.1663,21.1663,0,0,0,1.0117-5.2489,7.5957,7.5957,0,0,0-1.5145-5.0236,9.1286,9.1286,0,0,0-2.9084-2.173c-1.48-.7723-3.2573-1.3818-4.7836-.7056" fill="#fff"/>
          <path d="M278.9431,161.8648c-2.478,3.2283-1.5115,7.66-.9506,11.3562.1859,1.2253.3551,2.4544.5587,3.6769a3.1959,3.1959,0,0,0,.9134,2.0526,2.3527,2.3527,0,0,0,1.2138.4695c.3306.0423.9053-.0868,1.0829.1865.1044.1606-.005.785-.0063.9843l-.0062.9844q-.0063.9845-.0125,1.9688a.0879.0879,0,0,0,.0865.0865q3.579.0856,7.1587.0319a.0913.0913,0,0,0,.09-.09,7.2228,7.2228,0,0,1,.2369-1.7571c.0744-.2747.1989-.858.4645-1.0018.1331-.0721.36-.0716.5071-.1324a3.2216,3.2216,0,0,0,1.4491-1.4429,14.4638,14.4638,0,0,0,1.141-2.8677c.3448-1.0844.6615-2.1819.9426-3.2846a12.69,12.69,0,0,0,.34-6.1,6.8439,6.8439,0,0,0-3.08-4.22c-1.7006-1.0946-3.9834-2.21-6.0053-1.3708-.1082.0449-.0626.2233.0493.1789,2.0687-.82,4.4112.3608,6.1124,1.5285a6.8784,6.8784,0,0,1,2.9605,5.4875,20.13,20.13,0,0,1-1.1944,6.7049,24.5862,24.5862,0,0,1-1.1445,3.2816c-.4331.95-1.1082,1.9816-2.25,2.0615a.093.093,0,0,0-.0805.0462,7.4344,7.4344,0,0,0-.4915,1.52c-.0706.3563-.0037,1.0923-.2938,1.2815-.1663.1085-.7823.0108-.9874.0128q-.37.0036-.7406.0056-.9258.0051-1.8516,0t-1.8514-.0189q-.37-.0057-.74-.013-.2467-.005-.4936-.01a.3162.3162,0,0,1-.1576-.4115,10.13,10.13,0,0,1,.01-1.7227q.0055-.9845.0107-1.9687a.0854.0854,0,0,0-.0845-.0845,2.8811,2.8811,0,0,1-2.5327-.7068,4.817,4.817,0,0,1-.7193-2.3791c-.2676-1.75-.5479-3.4987-.8-5.2511-.435-3.0221-.6994-6.4351,1.2-9.0435.0232-.0318-.029-.0608-.0522-.0306Z"/>
        </g>
        <path d="M281.4383,174.5969a4.3575,4.3575,0,0,0-.1971-3.1266,2.0581,2.0581,0,0,0-.627-.7937,1.3245,1.3245,0,0,0-1.2752-.1321,1.4124,1.4124,0,0,0-.6409.5974,18.2855,18.2855,0,0,1-.4479-5.8458,7.6021,7.6021,0,0,1,4.8221-6.62c5.0543-2.0762,12.3155-.025,14.3681,4.9361a12.275,12.275,0,0,1-2.2034,12.2964c-2.6275,2.781-6.407,3.1893-9.8949,2.6165-1.7845-.2931-4.539-.1174-5.4625-2.5444a.2709.2709,0,0,1,.2787-.3595C280.8827,175.6766,281.3861,174.8563,281.4383,174.5969Z"/>
        <path d="M281.05,168c-.1878.2944-.1436.69-.32.9913a2.326,2.326,0,0,1-1.2218.9355c-.8578.3977-.6568,1.6466-.6323,2.205-.647-.43-.752-1.6013-.9084-2.1963-.1756-.6681-.2877-1.3535-.4823-2.0163a10.2036,10.2036,0,0,1-.5779-1.93,7.9282,7.9282,0,0,1,3.0376-6.4133,4.2232,4.2232,0,0,1,4.7292.0559,3.6883,3.6883,0,0,1,1.35,1.7173,1.136,1.136,0,0,1,.0525.9214"/>
        <path d="M292.5357,184.5491c-.1213-.8171-.3422-1.77-1.1027-2.0919a2.3792,2.3792,0,0,0-.6711-.1425,55.6325,55.6325,0,0,0-7.0129-.3309,6.53,6.53,0,0,0-2.8378.4978c-1.3592.6792-2.1063,2.1441-2.7627,3.5143"/>
        <path d="M272.8166,214.4933a19.5175,19.5175,0,0,0,1.3465-1.5869c.6467-1.2714,1.2123-6.6244.99-7.9921-.2384-1.466-1.5357-2.2545-2.1212-5.5172a12.0664,12.0664,0,0,1,1.9327-8.8687c1.3618-1.9786.5545-1.9672,1.02-4.391a2.3124,2.3124,0,0,1,.481-1.2071,11.6691,11.6691,0,0,1,2.7231-1.29c3.7853-.5864,6.01-.1286,9.8365.0389a32.8243,32.8243,0,0,1,5.6418.7139c2.0569.4536,3.8488.9991,4.2719,3.7906a28.1155,28.1155,0,0,1-1.2083,12.7767c-.87,2.7139-6.0641,12.1034-4.7771,13.9205a6.2069,6.2069,0,0,1,1.1194,1.7222c.3257,1.8978-3.9619,2.5652-5.7971,2.7158a71.792,71.792,0,0,1-8.8066-.0554c-2.1232-.0992-6.7675-.84-7.0973-3.464A1.8944,1.8944,0,0,1,272.8166,214.4933Z"/>
        <path d="M273.6242,200.2088a7.5579,7.5579,0,0,0,.564,2.1893,5.8692,5.8692,0,0,0,3.8567.1746,56.0315,56.0315,0,0,1,1.7431-7.3786S273.6248,199.5029,273.6242,200.2088Z" fill="url(#b)" style="mix-blend-mode: multiply"/>
        <path d="M291.2926,176.7868a4.0462,4.0462,0,0,1,3.9964,1.5694c1.1208,1.3422,1.6062,3.4273.5587,4.8273a4.6789,4.6789,0,0,1-1.5195,1.2111,8.0477,8.0477,0,0,1-5.72,1.0618,4.58,4.58,0,0,1-3.5981-4.1848c.0208-1.7968,1.3324-3.2972,2.6591-4.5091"/>
        <g>
          <path d="M275.7563,201.0334s-9.9892,16-13.0228,16c-2.2067,0-9.25-14.3078-9.25-14.3078l3.419-1.6185,5.4591,6.6243,6.6789-11.5317" fill="#fff" stroke="#000" stroke-miterlimit="10" stroke-width="0.25"/>
          <path d="M257.5808,202.2692a6.6542,6.6542,0,0,1-1.05-3.05,12.9331,12.9331,0,0,0,.0788-3.2316,13.4612,13.4612,0,0,0-1.1428-2.2172c-.3285-.2873-1.543-.7493-1.84-.544s-.6665-.739-1.1591-.657a1.0444,1.0444,0,0,0-.9033.9443c0,.4518-.657.5339-.7391.8623a4.5984,4.5984,0,0,1-.1642.8622c-.1231.2464-.4861.1246-.6159.739-.1188.5624.041.6159,0,.9033s-.2874.2608-.2053.8079a6.8666,6.8666,0,0,0,.7853,1.8731,5.4124,5.4124,0,0,0,1.907,1.9312,3.6424,3.6424,0,0,1,1.1122,1.5355" fill="#fff" stroke="#000" stroke-miterlimit="10" stroke-width="0.25"/>
        </g>
        <path d="M282.7668,183.38c-1.8208.0947-7.1222-.8353-10.0679,2.2457-2.468,2.5816-3.8821,9.349-4.8755,12.0937,2.4723,2.52,4.8542,4.5527,8.6,3.7344.1413-.1052,2-5.9546,3.3531-6.4749"/>
      </g>
      <path d="M140.2034,65.88h55.8045a2.4765,2.4765,0,0,1,2.4765,2.4765v1.727a2.4765,2.4765,0,0,1-2.4765,2.4765H140.2034a2.4756,2.4756,0,0,1-2.4756-2.4756V68.356A2.4756,2.4756,0,0,1,140.2034,65.88Z" transform="translate(346.2375 105.5565) rotate(169.1491)"/>
      <g>
        <path d="M163.6678,30.18c-15.0122.8942-34.5187,13.9738-24.5632,40.3031l2.7114-1.5872c.519-20.352,4.8362-24.2875,12.7509-24.99l18.5471-1.8569c4.6507.2261,13.6067,3.4559,16.4349,19.43l4.3946-.44C193.1637,49.3761,188.2963,28.7126,163.6678,30.18Z"/>
        <path d="M160.6519,30.92,158.9091,36.02a2.946,2.946,0,0,0,3.2275,2.4019c2.6928-.322,2.9313-1.6035,2.9313-1.6035l-.1978-5.64Z" fill="#fff" stroke="#000" stroke-miterlimit="10" stroke-width="0.25"/>
        <path d="M171.6713,25.7284c-2.0934,4.725-3.0788,6.2282-6.3238,7.2256-4.2028,1.2918-9.2944-1.1283-7.7583-8.4754,1.2527-5.9914,4.0993-5.3662,6.8227-5.4115S173.9329,20.6236,171.6713,25.7284Z" fill="#fff" stroke="#000" stroke-miterlimit="10" stroke-width="0.25"/>
        <path d="M161.2594,23.1829a1.824,1.824,0,0,0-2.0124.7,2.2689,2.2689,0,0,0-.3561,2.2143,1.9723,1.9723,0,0,0-1.6455,2.2446c-.87-1.5828-.6556-3.3388-.9615-5.0158a6.6036,6.6036,0,0,1,.6684-4.9358,5.5323,5.5323,0,0,1,1.5181-1.427,8.5366,8.5366,0,0,1,7.6188-.8558,4.6543,4.6543,0,0,0,3.4913.2656c3.19-1.11,5.3175.9116,3.5572,3.1736a2.6191,2.6191,0,0,1,1.7169.9573.5053.5053,0,0,1,.0615.4889.5687.5687,0,0,1-.2815.2151,3.5777,3.5777,0,0,1-1.7056.3052c.2387.1657,1.4579.12,1.893.7893,1.1576,1.7815-2.7942,1.212-3.4007,1.0814.6841.06,2.584,1.2937,2.1147,2.3142-.0926.2014-2.3363,1.8213-5.1222-.8389a4.5866,4.5866,0,0,0-2.3193-1.3168,3.4313,3.4313,0,0,0-2.0068.5157c-.46.2268-1.6071,1.0883-2,.681C161.6553,24.2908,162.0768,23.4942,161.2594,23.1829Z"/>
        <path d="M190.0226,61.436c-.439,2.3466-1.0876,2.6392-.248,2.9238s1.3639-1.0579,1.3639-1.0579l3.7826.3741s-1.0731-2.3279-1.6864-2.5615A11.6759,11.6759,0,0,0,190.0226,61.436Z" fill="#fff" stroke="#000" stroke-miterlimit="10" stroke-width="0.25"/>
        <path d="M141.816,68.8956c.6023,1.1563.7369,1.1509,1.5541,2.532,1.5618,2.6392-1.0328,7.3084-3.3776,2.7181a13.4215,13.4215,0,0,1-.8879-3.6629Z" fill="#fff" stroke="#000" stroke-miterlimit="10" stroke-width="0.25"/>
      </g>
      <g>
        <rect x="83.0122" y="73.8721" width="38" height="1" fill="#fff"/>
        <rect x="83.0122" y="75.8721" width="29" height="1" fill="#fff"/>
        <rect x="83.0122" y="76.8721" width="29" height="1" fill="#fff"/>
        <rect x="83.0122" y="79.8721" width="20" height="1" fill="#fff"/>
        <rect x="83.0122" y="80.8721" width="20" height="1" fill="#fff"/>
        <rect x="83.0122" y="77.8721" width="38" height="1" fill="#fff"/>
        <rect x="83.0122" y="78.8721" width="38" height="1" fill="#fff"/>
        <rect x="83.0122" y="82.8721" width="38" height="1" fill="#fff"/>
        <rect x="83.0122" y="86.8721" width="38" height="1" fill="#fff"/>
        <rect x="83.0122" y="84.8721" width="29" height="1" fill="#fff"/>
        <rect x="83.0122" y="88.8721" width="20" height="1" fill="#fff"/>
      </g>
      <g>
        <rect x="46.1582" y="296.5959" width="17.3351" height="27.9053" fill="#d1d1d1"/>
        <polygon points="46.158 296.596 46.158 324.553 20.489 324.921 20.489 296.596 46.158 296.596" fill="#ececec"/>
        <rect x="27.6938" y="277.8721" width="11.5266" height="18.555" fill="#a8a7a5"/>
        <polygon points="39.22 277.872 39.22 296.462 56.288 296.706 56.288 277.872 39.22 277.872" fill="#d3d1d1"/>
      </g>
    </g>
  </g>
</svg>
